<?xml version="1.0" encoding="utf-8"?>
<!-- Generator: Adobe Illustrator 16.0.0, SVG Export Plug-In . SVG Version: 6.00 Build 0)  -->
<!DOCTYPE svg PUBLIC "-//W3C//DTD SVG 1.1//EN" "http://www.w3.org/Graphics/SVG/1.1/DTD/svg11.dtd">
<svg version="1.1" xmlns="http://www.w3.org/2000/svg" xmlns:xlink="http://www.w3.org/1999/xlink" x="0px" y="0px"
	 width="841.89px" height="595.28px" viewBox="0 0 841.89 595.28" enable-background="new 0 0 841.89 595.28" xml:space="preserve">
<g id="Shade1" display="none">
	<path display="inline" fill="#D5371C" d="M751.475,106.839c-13.111,2.976-26.17,6.138-39.187,9.451
		c6.738-5.045,2.106-16.608-6.288-16.791c-28.395-0.619-56.02,9.172-82.591,18.028c-29.183,9.726-59.07,17.22-88.519,26.112
		c-12.304,3.715-24.569,7.544-36.806,11.46c-15.131,4.047-30.226,8.231-45.297,12.491c-63.189,17.859-126.23,36.33-188.715,56.529
		c-12.207,3.946-24.564,7.647-36.513,12.33c-8.143,3.191-16.166,6.683-24.213,10.106c3.376-1.512,6.757-2.995,10.131-4.453
		c25.489-11.013,51.35-21.146,76.846-32.156c28.666-12.378,57.209-24.966,86.822-34.936c27.156-9.142,54.788-17.923,79.814-32.145
		c0.951-0.545,1.896-1.101,2.836-1.664c3.664-2.175,5.501-6.601,4.365-10.729c-1.49-5.42-6.572-7.423-11.686-6.635
		c-62.437,9.624-123.293,27.755-184.539,42.854c-30.855,7.606-61.647,15.476-92.66,22.424c-15.868,3.556-31.8,6.825-47.802,9.722
		c-13.912,2.519-27.115,7.431-41.475,5.661c-5.152-0.635-9.5,4.802-9.5,9.5c0,5.658,4.362,8.867,9.5,9.5
		c13.997,1.726,28.075-2.079,41.605-5.235c15.555-3.628,31.397-6.149,47.012-9.563c31.687-6.926,63.119-14.964,94.6-22.757
		c25.477-6.307,50.904-13.115,76.403-19.638c-20.645,7.998-40.938,16.885-61.275,25.674c-25.69,11.102-51.664,21.477-77.421,32.415
		c-24.88,10.566-49.474,22.41-70.898,39.086c-1.6,1.245-3.18,2.51-4.743,3.8c-7.085,5.846-0.576,15.509,6.717,16.218
		c2.561,0.249,5.133,0.326,7.71,0.269c-23.195,9.876-46.082,20.46-68.505,32.028c-9.505,4.903-2.859,21.009,7.32,17.363
		c29.908-10.709,58.189-25.285,87.267-37.966c19.832-8.649,39.92-16.76,60.079-24.668c8.229-2.96,16.476-5.872,24.738-8.735
		c50.563-17.523,101.548-34.003,152.701-49.78c-21.889,8.839-43.702,17.88-65.424,27.188c-20.225,8.667-40.403,17.443-60.534,26.327
		c-19.929,7.755-39.812,15.621-59.599,23.719c-53.369,21.843-106.1,45.738-155.548,75.553c-8.94,5.391-3.036,21.284,7.32,17.363
		c29.188-11.048,56.561-26.057,84.643-39.539c29.042-13.943,58.384-27.319,87.738-40.593c13.726-6.206,27.474-12.379,41.244-18.508
		c39.948-15.599,80.073-30.773,120.083-46.173c113.562-43.708,228.44-85.211,347.292-112.187
		C768.473,122.449,763.405,104.131,751.475,106.839z"/>
</g>
<g id="shade2" display="none">
	<path display="inline" fill="#D5371C" d="M748.475,59.839c-121.902,35.408-241.232,79.479-356.727,132.175
		c-34.251,15.627-67.918,32.463-101.81,48.845c-10.285,4.971-20.602,9.878-30.955,14.707c25.254-14.888,52.401-27.033,78.527-39.159
		c26.277-12.196,52.239-25.045,78.474-37.332c29.66-13.891,59.512-27.368,89.296-40.991c5.979-2.735,11.956-5.478,17.929-8.229
		c1.935-0.891,3.855-1.807,5.787-2.704c2.366-1.099,1.769-0.812,3.855-1.671c8.131-3.346,16.341-6.483,24.433-9.926
		c15.375-6.54,33.043-14.73,39.876-31.03c1.828-4.359-1.944-11.026-6.635-11.686c-14.932-2.102-28.734,2.35-43.051,6
		c-15.382,3.922-30.648,8.385-45.838,12.986c-29.168,8.835-57.871,19.172-86.693,29.061c-55.577,19.068-110.9,39.555-163.368,66.178
		c-21.122,10.718-41.677,22.566-61.37,35.732c-10.129,6.772-0.628,23.238,9.59,16.406c48.372-32.34,101.702-56.295,155.941-76.935
		c27.181-10.343,54.675-19.845,82.215-29.182c29.502-10.003,58.821-20.268,88.789-28.842c8.301-2.375,16.637-4.607,24.976-6.839
		c-5.856,2.604-11.838,4.939-17.79,7.298c-25.735,10.198-50.661,22.645-75.839,34.137c-53.721,24.521-107.147,49.785-160.376,75.356
		c-38.011,18.26-76.542,38.755-106.428,69.086c-6.01,6.1-1.443,15.834,6.717,16.218c13.495,0.634,25.929-6.253,37.554-12.231
		c13.507-6.946,27.666-12.736,41.407-19.216c28.954-13.653,57.598-27.953,86.431-41.859c56.881-27.434,115.058-52.247,173.937-75.06
		c70.946-27.488,143.135-51.751,216.197-72.974C765.268,74.75,760.268,56.414,748.475,59.839z"/>
</g>
<g id="Layer_3">
	<path fill="#D5371C" d="M725.475,10.839c-29.952,6.271-58.113,19.008-85.323,32.69c-25.125,12.633-50.361,25.436-74.655,39.613
		c-41.27,24.084-79.854,53.172-113.781,86.876c5.643-11.475,11.238-22.974,16.628-34.572C476.084,118.792,488.007,101.94,488.5,83
		c0.152-5.864-6.24-11.219-12.025-9.161c-20.504,7.296-36.298,23.842-49.757,40.324c-14.415,17.654-26.795,36.816-39.071,55.98
		c-15.628,24.4-30.093,49.47-44.394,74.665c-0.775,1.365-1.558,2.728-2.342,4.09c3.517-6.966,7.06-13.824,10.339-20.574
		c8.121-16.716,14.944-34.07,22.733-50.953c8.556-18.547,17.249-37.02,25.177-55.848c1.626-3.861-1.049-8.786-4.366-10.729
		c-4.032-2.362-8.088-1.179-11.513,1.486c-22.004,17.123-40.335,38.413-57.607,60.159c-18.148,22.85-35.764,46.146-53.729,69.141
		c-15.553,19.907-30.655,40.446-47.453,59.337c-0.476,0.535-0.941,1.047-1.403,1.547c0.271-0.811,0.553-1.617,0.836-2.419
		c5.07-14.32,13.914-30.082,21.842-44.672c5.885-10.832,10.543-22.41,15.675-33.616c5.121-11.181,10.088-22.458,14.423-33.971
		c1.538-1.108,2.743-2.826,3.292-5.264c0.749-3.321,1.052-6.727,2-10c3.423-11.819-14.685-16.695-18.321-5.051
		c-4.606,14.748-10.63,28.929-17.018,42.98c-5.036,11.08-9.635,22.61-15.38,33.336c-7.071,13.201-14.347,26.285-20.328,40.033
		c-5.168,11.881-14.771,31.888-1.283,41.664c8.03,5.82,18.3-0.818,24.294-6.215c6.625-5.965,11.629-13.47,17.374-20.225
		c12.543-14.747,24.161-30.306,36.079-45.562c12.161-15.566,24.458-30.992,36.403-46.726c12.391-16.32,25.009-32.79,38.829-48.086
		c-1.953,4.195-3.904,8.39-5.838,12.592c-7.881,17.122-14.839,34.654-23.133,51.579C317.893,253.343,299.814,285.247,298.5,320
		c-0.251,6.631,8.505,12.613,14.295,8.203c9.935-7.567,16.45-17.938,22.167-28.889c6.41-12.279,13.026-24.347,19.868-36.402
		c14.973-26.383,29.736-52.966,46.195-78.462c11.43-17.707,22.578-35.667,35.526-52.327c7.537-9.698,16.551-20.74,26.723-29.101
		c-0.394,0.789-0.79,1.571-1.186,2.347c-4.365,8.56-8.555,17.11-12.638,25.815c-8.95,19.08-18.433,37.905-27.729,56.816
		c-6.724,13.677-13.463,27.392-20.556,40.913c-14.058,19.406-26.617,39.891-37.369,61.292c-5.592,11.132,9.229,19.339,16.406,9.59
		c13.93-18.922,25.722-39.188,36.653-59.938c47.617-65.34,112.553-117.111,184.359-154.772
		c41.354-21.689,83.137-46.258,129.311-55.925C742.515,26.65,737.429,8.336,725.475,10.839z"/>
</g>
</svg>
